<svg width="40" height="40" viewBox="0 0 40 40" fill="none" xmlns="http://www.w3.org/2000/svg">
<mask id="mask0_3296_3448" style="mask-type:alpha" maskUnits="userSpaceOnUse" x="4" y="4" width="32" height="32">
<rect x="4" y="4" width="32" height="32" fill="#D9D9D9"/>
</mask>
<g mask="url(#mask0_3296_3448)">
<path d="M13.2283 20.6667L20.4793 27.918C20.6093 28.0478 20.6773 28.2008 20.6833 28.377C20.6893 28.553 20.6188 28.7146 20.4716 28.8617C20.3248 29.0034 20.1675 29.0757 20 29.0783C19.8324 29.0808 19.6752 29.0086 19.5283 28.8617L11.4206 20.754C11.3042 20.6376 11.2225 20.5187 11.1756 20.3973C11.1285 20.276 11.105 20.1436 11.105 20C11.105 19.8564 11.1285 19.724 11.1756 19.6027C11.2225 19.4813 11.3042 19.3624 11.4206 19.246L19.5283 11.1383C19.653 11.0137 19.8046 10.947 19.9833 10.9383C20.162 10.9299 20.3248 10.9966 20.4716 11.1383C20.6188 11.2854 20.6923 11.444 20.6923 11.614C20.6923 11.7842 20.6188 11.9428 20.4716 12.0897L13.2283 19.3333H28.6666C28.8564 19.3333 29.015 19.397 29.1423 19.5243C29.2696 19.6517 29.3333 19.8102 29.3333 20C29.3333 20.1898 29.2696 20.3483 29.1423 20.4757C29.015 20.603 28.8564 20.6667 28.6666 20.6667H13.2283Z" fill="white"/>
</g>
</svg>
